<?xml version="1.0" encoding="UTF-8"?>
<svg width="20px" height="20px" viewBox="0 0 20 20" version="1.1" xmlns="http://www.w3.org/2000/svg" xmlns:xlink="http://www.w3.org/1999/xlink">
    <!-- Generator: Sketch 47 (45396) - http://www.bohemiancoding.com/sketch -->
    <title>Page 1</title>
    <desc>Created with Sketch.</desc>
    <defs></defs>
    <g id="Site" stroke="none" stroke-width="1" fill="none" fill-rule="evenodd">
        <g id="Desktop" transform="translate(-14.000000, -98.000000)" fill="#666666">
            <path d="M29.0729965,98.4883008 C27.3823889,98.155174 25.670058,98 24.0022015,98 C22.2898706,98 20.5775953,98.1562574 18.8869599,98.4883008 C16.6190473,98.9104041 14.906772,100.666126 14.4834187,102.888509 C13.8388604,106.265335 13.8388604,109.710775 14.4834187,113.065934 C14.9055219,115.354458 16.6623549,117.065567 18.8869599,117.48892 C20.5764842,117.843743 22.2887872,118 24.0022015,118 C25.7145324,118 27.4040288,117.843743 29.0946642,117.510616 C31.3636602,117.065706 33.0759633,115.332791 33.4982055,113.08874 C34.1655425,109.709692 34.1655425,106.26564 33.4982055,102.910204 C33.0761022,100.643347 31.2964904,98.910543 29.0729965,98.4883008 Z M23.9166419,112.522297 C23.9166419,112.752341 23.7299997,112.938983 23.4999556,112.938983 C23.2699114,112.938983 23.0832692,112.752341 23.0832692,112.522297 L23.0832692,112.381232 C23.0832692,112.151188 23.2699114,111.964546 23.4999556,111.964546 C23.7299997,111.964546 23.9166419,112.151188 23.9166419,112.381232 L23.9166419,112.522297 Z M26.9212282,106.554237 C26.7975252,107.706625 26.0911057,108.617057 24.7607651,109.336591 C23.9729779,109.763055 23.8785568,110.407614 23.8937519,110.753769 C23.9035191,110.983813 23.7244717,111.178039 23.4944275,111.187817 L23.4770656,111.187817 C23.2546162,111.187817 23.0701575,111.012028 23.0614626,110.788493 C23.0441007,110.353361 23.1352494,109.270421 24.3646908,108.60414 C25.4497976,108.017084 25.9999625,107.336719 26.0933002,106.465372 C26.2039832,105.43124 25.6755305,104.199654 24.4786407,103.952226 C23.396784,103.73086 22.6697497,104.179017 22.4071539,104.383024 C22.0382199,104.669482 21.8949631,104.976579 21.8884628,105.112225 C21.8786957,105.342269 21.6877144,105.515883 21.4533311,105.509382 C21.2232842,105.498532 21.0453119,105.304295 21.0561735,105.074251 C21.0767911,104.622841 21.3903837,104.118261 21.8960465,103.725437 C22.6426095,103.14491 23.645268,102.930038 24.6468153,103.137298 C26.3255056,103.48237 27.0720687,105.155616 26.9212282,106.554404 L26.9212282,106.554237 Z" id="Page-1"></path>
        </g>
    </g>
</svg>